<?xml version="1.0" encoding="UTF-8"?>
<svg id="Layer_1" data-name="Layer 1" xmlns="http://www.w3.org/2000/svg" viewBox="0 0 26.84 43.71">
  <defs>
    <style>
      .cls-1 {
        fill: #fff;
        stroke-width: 0px;
      }
    </style>
  </defs>
  <path class="cls-1" d="M24.4,13.23H2.43c-.57,0-1.03.48-1,1.05l1.57,28.6c.02.47.4.83.86.83h19.09c.47,0,.85-.36.87-.83l1.57-28.6c.03-.57-.42-1.05-1-1.05ZM8.6,40.05c0,.66-.54,1.2-1.21,1.2s-1.2-.54-1.2-1.2v-23.15c0-.66.54-1.2,1.2-1.2s1.21.54,1.21,1.2v23.15ZM14.63,40.05c0,.66-.54,1.2-1.21,1.2s-1.2-.54-1.2-1.2v-23.15c0-.66.54-1.2,1.2-1.2s1.21.54,1.21,1.2v23.15ZM20.65,40.05c0,.66-.54,1.2-1.21,1.2s-1.21-.54-1.21-1.2v-23.15c0-.66.54-1.2,1.21-1.2s1.21.54,1.21,1.2v23.15Z"/>
  <path class="cls-1" d="M26.74,4.29l-1.23-1.65c-.19-.25-.65-.34-1.1-.22l-4.89,1.36-.86-3.11c-.14-.49-.64-.78-1.13-.64L5.71,3.32c-.5.14-.78.65-.64,1.13l.86,3.11-4.9,1.36c-.45.13-.79.44-.82.75L0,11.73c-.04.46.55.74,1.19.56l24.82-6.9c.65-.18,1-.72.73-1.09ZM8.19,6.93l-.31-1.11c-.14-.5.15-1,.64-1.13l7.29-2.03c.49-.14.99.14,1.13.64l.31,1.11-9.06,2.52Z"/>
  <path class="cls-1" d="M24.87,12.34h-13.74v-.9c0-.55.38-1,.87-1h5.06c.11,0,.22.02.31.07l3.66-2.89c.4-.32.94-.2,1.21.25l2.49,4.11c.06.11.1.24.13.36Z"/>
</svg>