<?xml version="1.0" encoding="UTF-8"?>
<svg id="Layer_1" data-name="Layer 1" xmlns="http://www.w3.org/2000/svg" viewBox="0 0 27.82 38.96">
  <defs>
    <style>
      .cls-1 {
        fill: #fff;
        stroke-width: 0px;
      }
    </style>
  </defs>
  <path class="cls-1" d="M24.89,8.48H2.92c-.57,0-1.03.48-1,1.05l1.57,28.6c.02.47.4.83.86.83h19.09c.47,0,.85-.36.87-.83l1.57-28.6c.03-.57-.42-1.05-1-1.05ZM9.1,35.29c0,.66-.54,1.2-1.21,1.2s-1.2-.54-1.2-1.2V12.15c0-.66.54-1.2,1.2-1.2s1.21.54,1.21,1.2v23.15ZM15.12,35.29c0,.66-.54,1.2-1.21,1.2s-1.2-.54-1.2-1.2V12.15c0-.66.54-1.2,1.2-1.2s1.21.54,1.21,1.2v23.15ZM21.14,35.29c0,.66-.54,1.2-1.21,1.2s-1.21-.54-1.21-1.2V12.15c0-.66.54-1.2,1.21-1.2s1.21.54,1.21,1.2v23.15Z"/>
  <path class="cls-1" d="M27.79,6.58l-.74-1.92c-.12-.29-.53-.51-1-.51h-5.08V.92c0-.51-.4-.92-.92-.92H7.78c-.51,0-.92.41-.92.92v3.23H1.78c-.47,0-.87.21-.99.51L.03,6.58c-.17.43.33.86,1,.86h25.76c.67,0,1.16-.42.99-.86ZM9.21,4.15v-1.15c0-.51.41-.92.92-.92h7.57c.51,0,.92.4.92.92v1.15h-9.41Z"/>
</svg>