<?xml version="1.0" encoding="UTF-8"?>
<svg id="Layer_1" data-name="Layer 1" xmlns="http://www.w3.org/2000/svg" viewBox="0 0 26.84 43.71">
  <defs>
    <style>
      .cls-1 {
        fill: #fff;
        stroke-width: 0px;
      }
    </style>
  </defs>
  <path class="cls-1" d="M26.74,4.29l-1.23-1.65c-.19-.25-.65-.34-1.1-.22l-4.89,1.36-.86-3.11c-.14-.49-.64-.78-1.13-.64L5.71,3.32c-.5.14-.78.65-.64,1.13l.86,3.11-4.9,1.36c-.45.13-.79.44-.82.75L0,11.73c-.04.46.55.74,1.19.56l24.82-6.9c.65-.18,1-.72.73-1.09ZM8.19,6.93l-.31-1.11c-.14-.5.15-1,.64-1.13l7.29-2.03c.49-.14.99.14,1.13.64l.31,1.11-9.06,2.52Z"/>
  <path class="cls-1" d="M24.87,12.34h-13.74v-.9c0-.55.38-1,.87-1h5.06c.11,0,.22.02.31.07l3.66-2.89c.4-.32.94-.2,1.21.25l2.49,4.11c.06.11.1.24.13.36Z"/>
  <path class="cls-1" d="M24.4,13.23H2.43c-.57,0-1.03.48-1,1.05l1.57,28.6c.02.47.4.83.86.83h19.09c.47,0,.85-.36.87-.83l1.57-28.6c.03-.57-.42-1.05-1-1.05ZM15.33,33.27l-1.57,1.37c-.19.16-.49.16-.68,0l-1.57-1.37c-.21-.19-.18-.5.07-.65.53-.32,1.16-.51,1.85-.51s1.32.19,1.85.51c.25.15.28.46.07.65ZM17.58,31.02l-1.1.96c-.17.15-.46.18-.65.05-.66-.46-1.5-.73-2.41-.73s-1.75.28-2.4.74c-.19.13-.47.11-.65-.04l-1.11-.97c-.19-.17-.19-.45.01-.61,1.12-.83,2.57-1.32,4.15-1.32s3.03.5,4.15,1.32c.21.15.21.44.01.61ZM19.8,28.61l-1.11.97c-.18.16-.47.16-.66,0-1.23-.94-2.85-1.5-4.61-1.5s-3.37.57-4.61,1.5c-.19.15-.48.15-.66,0l-1.11-.97c-.19-.17-.19-.45.01-.61,1.69-1.32,3.92-2.12,6.37-2.12s4.69.8,6.37,2.12c.2.16.2.44,0,.61ZM22.02,26.08l-1.11.97c-.18.16-.47.16-.66,0-1.8-1.43-4.2-2.3-6.83-2.3s-5.03.87-6.83,2.3c-.19.15-.48.15-.66,0l-1.11-.97c-.19-.17-.19-.44,0-.61,2.26-1.81,5.28-2.92,8.6-2.92s6.34,1.11,8.6,2.92c.2.16.2.44,0,.61Z"/>
</svg>